<mxfile host="app.diagrams.net" modified="2022-11-08T04:46:13.823Z" agent="5.0 (Macintosh; Intel Mac OS X 10_15_7) AppleWebKit/537.36 (KHTML, like Gecko) Chrome/106.0.0.0 Safari/537.36" etag="0GsD5bsS9h-ONo9Rbune" version="20.5.2" type="github">
  <diagram id="J85wBmuyErFbA8vXXsc0" name="第 1 页">
    <mxGraphModel dx="1554" dy="866" grid="1" gridSize="10" guides="1" tooltips="1" connect="1" arrows="1" fold="1" page="1" pageScale="1" pageWidth="827" pageHeight="1169" math="0" shadow="0">
      <root>
        <mxCell id="0" />
        <mxCell id="1" parent="0" />
        <mxCell id="L9vlpNBbVQ5jTYWoR4C3-14" value="" style="group" vertex="1" connectable="0" parent="1">
          <mxGeometry x="124" y="585" width="580" height="170" as="geometry" />
        </mxCell>
        <mxCell id="L9vlpNBbVQ5jTYWoR4C3-2" value="" style="rounded=0;whiteSpace=wrap;html=1;" vertex="1" parent="L9vlpNBbVQ5jTYWoR4C3-14">
          <mxGeometry width="580" height="170" as="geometry" />
        </mxCell>
        <mxCell id="L9vlpNBbVQ5jTYWoR4C3-3" value="Registry Class" style="text;strokeColor=none;fillColor=none;align=left;verticalAlign=middle;spacingLeft=4;spacingRight=4;overflow=hidden;points=[[0,0.5],[1,0.5]];portConstraint=eastwest;rotatable=0;whiteSpace=wrap;html=1;" vertex="1" parent="L9vlpNBbVQ5jTYWoR4C3-14">
          <mxGeometry x="30" y="10" width="160" height="30" as="geometry" />
        </mxCell>
        <mxCell id="L9vlpNBbVQ5jTYWoR4C3-1" value="Data" style="rounded=1;whiteSpace=wrap;html=1;fillColor=#dae8fc;strokeColor=#6c8ebf;" vertex="1" parent="L9vlpNBbVQ5jTYWoR4C3-14">
          <mxGeometry x="30" y="70" width="120" height="60" as="geometry" />
        </mxCell>
        <mxCell id="L9vlpNBbVQ5jTYWoR4C3-4" value="Data" style="rounded=1;whiteSpace=wrap;html=1;fillColor=#d5e8d4;strokeColor=#82b366;" vertex="1" parent="L9vlpNBbVQ5jTYWoR4C3-14">
          <mxGeometry x="230" y="70" width="120" height="60" as="geometry" />
        </mxCell>
        <mxCell id="L9vlpNBbVQ5jTYWoR4C3-5" value="Data" style="rounded=1;whiteSpace=wrap;html=1;fillColor=#ffe6cc;strokeColor=#d79b00;" vertex="1" parent="L9vlpNBbVQ5jTYWoR4C3-14">
          <mxGeometry x="420" y="70" width="120" height="60" as="geometry" />
        </mxCell>
        <mxCell id="L9vlpNBbVQ5jTYWoR4C3-17" value="" style="group" vertex="1" connectable="0" parent="1">
          <mxGeometry x="59" y="860" width="710" height="260" as="geometry" />
        </mxCell>
        <mxCell id="L9vlpNBbVQ5jTYWoR4C3-12" value="" style="rounded=0;whiteSpace=wrap;html=1;" vertex="1" parent="L9vlpNBbVQ5jTYWoR4C3-17">
          <mxGeometry width="710" height="260" as="geometry" />
        </mxCell>
        <mxCell id="L9vlpNBbVQ5jTYWoR4C3-11" value="" style="group" vertex="1" connectable="0" parent="L9vlpNBbVQ5jTYWoR4C3-17">
          <mxGeometry x="65" y="70" width="580" height="170" as="geometry" />
        </mxCell>
        <mxCell id="L9vlpNBbVQ5jTYWoR4C3-9" value="" style="rounded=0;whiteSpace=wrap;html=1;fillColor=#f5f5f5;fontColor=#333333;strokeColor=#666666;" vertex="1" parent="L9vlpNBbVQ5jTYWoR4C3-11">
          <mxGeometry width="580" height="170" as="geometry" />
        </mxCell>
        <mxCell id="L9vlpNBbVQ5jTYWoR4C3-6" value="Filter" style="rounded=1;whiteSpace=wrap;html=1;fillColor=#dae8fc;strokeColor=#6c8ebf;" vertex="1" parent="L9vlpNBbVQ5jTYWoR4C3-11">
          <mxGeometry x="30" y="55" width="120" height="60" as="geometry" />
        </mxCell>
        <mxCell id="L9vlpNBbVQ5jTYWoR4C3-7" value="Filter" style="rounded=1;whiteSpace=wrap;html=1;fillColor=#d5e8d4;strokeColor=#82b366;" vertex="1" parent="L9vlpNBbVQ5jTYWoR4C3-11">
          <mxGeometry x="230" y="55" width="120" height="60" as="geometry" />
        </mxCell>
        <mxCell id="L9vlpNBbVQ5jTYWoR4C3-8" value="Filter" style="rounded=1;whiteSpace=wrap;html=1;fillColor=#ffe6cc;strokeColor=#d79b00;" vertex="1" parent="L9vlpNBbVQ5jTYWoR4C3-11">
          <mxGeometry x="420" y="55" width="120" height="60" as="geometry" />
        </mxCell>
        <mxCell id="L9vlpNBbVQ5jTYWoR4C3-10" value="Graph Class" style="text;strokeColor=none;fillColor=none;align=left;verticalAlign=middle;spacingLeft=4;spacingRight=4;overflow=hidden;points=[[0,0.5],[1,0.5]];portConstraint=eastwest;rotatable=0;whiteSpace=wrap;html=1;" vertex="1" parent="L9vlpNBbVQ5jTYWoR4C3-11">
          <mxGeometry x="20" y="10" width="80" height="30" as="geometry" />
        </mxCell>
        <mxCell id="L9vlpNBbVQ5jTYWoR4C3-13" value="Workspace Class" style="text;strokeColor=none;fillColor=none;align=left;verticalAlign=middle;spacingLeft=4;spacingRight=4;overflow=hidden;points=[[0,0.5],[1,0.5]];portConstraint=eastwest;rotatable=0;whiteSpace=wrap;html=1;" vertex="1" parent="L9vlpNBbVQ5jTYWoR4C3-17">
          <mxGeometry x="30" y="10" width="140" height="30" as="geometry" />
        </mxCell>
        <mxCell id="L9vlpNBbVQ5jTYWoR4C3-21" value="" style="group" vertex="1" connectable="0" parent="1">
          <mxGeometry x="120" y="1220" width="580" height="170" as="geometry" />
        </mxCell>
        <mxCell id="L9vlpNBbVQ5jTYWoR4C3-15" value="" style="rounded=0;whiteSpace=wrap;html=1;" vertex="1" parent="L9vlpNBbVQ5jTYWoR4C3-21">
          <mxGeometry width="580" height="170" as="geometry" />
        </mxCell>
        <mxCell id="L9vlpNBbVQ5jTYWoR4C3-16" value="Result" style="text;html=1;strokeColor=none;fillColor=none;align=center;verticalAlign=middle;whiteSpace=wrap;rounded=0;" vertex="1" parent="L9vlpNBbVQ5jTYWoR4C3-21">
          <mxGeometry x="25" y="10" width="60" height="30" as="geometry" />
        </mxCell>
        <mxCell id="L9vlpNBbVQ5jTYWoR4C3-18" value="Image" style="rounded=1;whiteSpace=wrap;html=1;fillColor=#dae8fc;strokeColor=#6c8ebf;" vertex="1" parent="L9vlpNBbVQ5jTYWoR4C3-21">
          <mxGeometry x="50" y="70" width="120" height="60" as="geometry" />
        </mxCell>
        <mxCell id="L9vlpNBbVQ5jTYWoR4C3-19" value="Yaml/Json" style="rounded=1;whiteSpace=wrap;html=1;fillColor=#d5e8d4;strokeColor=#82b366;" vertex="1" parent="L9vlpNBbVQ5jTYWoR4C3-21">
          <mxGeometry x="220" y="70" width="120" height="60" as="geometry" />
        </mxCell>
        <mxCell id="L9vlpNBbVQ5jTYWoR4C3-20" value="HDF5" style="rounded=1;whiteSpace=wrap;html=1;fillColor=#ffe6cc;strokeColor=#d79b00;" vertex="1" parent="L9vlpNBbVQ5jTYWoR4C3-21">
          <mxGeometry x="400" y="70" width="120" height="60" as="geometry" />
        </mxCell>
        <mxCell id="L9vlpNBbVQ5jTYWoR4C3-22" value="" style="shape=flexArrow;endArrow=classic;html=1;rounded=0;" edge="1" parent="1">
          <mxGeometry width="50" height="50" relative="1" as="geometry">
            <mxPoint x="530" y="780" as="sourcePoint" />
            <mxPoint x="530" y="830" as="targetPoint" />
          </mxGeometry>
        </mxCell>
        <mxCell id="L9vlpNBbVQ5jTYWoR4C3-23" value="" style="shape=flexArrow;endArrow=classic;html=1;rounded=0;" edge="1" parent="1">
          <mxGeometry width="50" height="50" relative="1" as="geometry">
            <mxPoint x="310" y="780" as="sourcePoint" />
            <mxPoint x="310" y="830" as="targetPoint" />
          </mxGeometry>
        </mxCell>
        <mxCell id="L9vlpNBbVQ5jTYWoR4C3-24" value="" style="shape=flexArrow;endArrow=classic;html=1;rounded=0;" edge="1" parent="1">
          <mxGeometry width="50" height="50" relative="1" as="geometry">
            <mxPoint x="414" y="1150" as="sourcePoint" />
            <mxPoint x="414" y="1200" as="targetPoint" />
          </mxGeometry>
        </mxCell>
      </root>
    </mxGraphModel>
  </diagram>
</mxfile>
